<?xml version="1.0" encoding="utf-8"?>
<!-- Generator: Adobe Illustrator 16.0.3, SVG Export Plug-In . SVG Version: 6.00 Build 0)  -->
<!DOCTYPE svg PUBLIC "-//W3C//DTD SVG 1.1//EN" "http://www.w3.org/Graphics/SVG/1.1/DTD/svg11.dtd">
<svg version="1.1" id="Layer_1" xmlns="http://www.w3.org/2000/svg" xmlns:xlink="http://www.w3.org/1999/xlink" x="0px" y="0px"
	 width="200px" height="181.938px" viewBox="0 0 200 181.938" enable-background="new 0 0 200 181.938" xml:space="preserve">
<g>
	<path fill="none" d="M135.157,18.934c0-3.031-2.491-5.497-5.556-5.497H70.397c-3.063,0-5.555,2.465-5.555,5.497v11.604h70.315
		V18.934z"/>
	<path fill="#999999" d="M64.842,18.934c0-3.031,2.491-5.497,5.555-5.497h59.205c3.064,0,5.556,2.465,5.556,5.497v11.604h13.579
		V18.934C148.736,8.494,140.153,0,129.602,0H70.397c-10.55,0-19.133,8.494-19.133,18.934v11.604h13.578V18.934z"/>
</g>
<g>
	<g>
		<path fill="#999999" d="M10,36.33c-5.5,0-10,4.5-10,10v125.608c0,5.5,4.5,10,10,10h180c5.5,0,10-4.5,10-10V46.33
			c0-5.5-4.5-10-10-10H10z M47.457,107.208c1.489,1.135,2.7,2.503,3.636,4.111c0.935,1.604,1.612,3.39,2.032,5.354
			c0.42,1.965,0.42,1.965,0.42,1.965c0.115,2.908,0.21,7.43,0.21,10.047s0.039,7.008,0.086,9.756c0,0,0,0,0.172,1.38
			c0.172,1.378,0.438,2.475,0.801,3.286c0.363,0.813,0.821,1.388,1.374,1.728c0.554,0.34,0.554,0.34,0.554,0.34
			c0.845,0.125,2.013,0.227,2.596,0.227s1.506,0.064,2.052,0.143c0,0,0,0,0.382,0.17c0.38,0.169,0.677,0.454,0.887,0.85
			s0.353,0.916,0.43,1.56c0.076,0.641,0.115,1.474,0.115,2.491c0,0.983-0.049,1.785-0.144,2.409s-0.238,1.125-0.428,1.503
			c-0.192,0.374-0.422,0.66-0.688,0.849c-0.268,0.188-0.553,0.321-0.859,0.398c-0.877,0.227-1.717,0.378-2.519,0.453
			c-0.801,0.074-1.7,0.113-2.691,0.113c-3.017,0-5.517-0.474-7.5-1.418c-1.986-0.945-3.571-2.313-4.753-4.108
			c-1.184-1.795-2.015-4.053-2.491-6.771c-0.478-2.719-0.478-2.719-0.478-2.719c-0.131-4.302-0.238-10.014-0.238-12.693
			c0-2.681-0.069-6.794-0.154-9.142c0,0,0,0-0.304-1.396c-0.307-1.399-0.784-2.637-1.433-3.713
			c-0.649-1.076-1.479-1.975-2.491-2.692c-1.011-0.717-1.011-0.717-1.011-0.717c-1.475-0.386-3-0.798-3.389-0.916
			c0,0,0,0-0.266-0.209c-0.268-0.207-0.497-0.51-0.688-0.906s-0.333-0.934-0.428-1.616c-0.096-0.679-0.144-1.509-0.144-2.491
			c0-1.021,0.038-1.88,0.114-2.579c0.077-0.698,0.201-1.255,0.373-1.671c0.171-0.417,0.381-0.709,0.629-0.881
			c0.249-0.167,0.249-0.167,0.249-0.167c0.383-0.109,2.818-0.947,5.41-1.862c0,0,0,0,1.414-2.189
			c1.411-2.191,1.411-2.191,1.411-2.191c0.389-4.124,0.708-9.143,0.708-11.153c0-2.011,0.107-7.17,0.238-11.465c0,0,0,0,0.478-2.701
			c0.476-2.701,1.317-4.967,2.519-6.8c1.203-1.832,2.797-3.21,4.782-4.136c1.984-0.926,4.465-1.389,7.443-1.389
			c0.991,0,1.89,0.049,2.691,0.143c0.802,0.095,0.802,0.095,0.802,0.095c0.914,0.182,1.952,0.398,2.309,0.481c0,0,0,0,0.268,0.188
			c0.266,0.19,0.496,0.473,0.688,0.85c0.19,0.378,0.333,0.897,0.428,1.559c0.095,0.661,0.144,1.464,0.144,2.408
			c0,0.982-0.057,1.794-0.172,2.436c-0.115,0.643-0.268,1.172-0.458,1.587c-0.192,0.417-0.44,0.708-0.745,0.878
			c-0.306,0.171-0.306,0.171-0.306,0.171c-0.336,0.046-1.087,0.097-1.669,0.113c-0.583,0.016-1.845,0.126-2.806,0.246
			c0,0,0,0-0.63,0.321c-0.629,0.321-1.145,0.888-1.545,1.7s-0.687,1.907-0.859,3.287c-0.172,1.378-0.172,1.378-0.172,1.378
			c-0.047,2.779-0.086,6.633-0.086,8.565s-0.095,5.919-0.21,8.859c0,0,0,0-0.42,1.962c-0.42,1.965-1.097,3.741-2.032,5.327
			c-0.936,1.587-2.147,2.957-3.636,4.107c-1.489,1.154-1.489,1.154-1.489,1.154c-2.205,0.722-2.205,1.897,0,2.614
			C45.968,106.076,45.968,106.076,47.457,107.208z M82.475,136.053c-1.241,1.206-3.465,1.813-6.67,1.813
			c-3.208,0-5.421-0.597-6.643-1.787c-1.222-1.188-1.833-3.446-1.833-6.771c0-3.549,0.62-5.93,1.86-7.139
			c1.241-1.209,3.483-1.813,6.729-1.813c3.167,0,5.362,0.595,6.584,1.785c1.222,1.191,1.832,3.468,1.832,6.83
			C84.335,132.481,83.715,134.844,82.475,136.053z M106.642,136.053c-1.24,1.206-3.464,1.813-6.669,1.813
			c-3.207,0-5.421-0.597-6.643-1.787c-1.222-1.188-1.832-3.446-1.832-6.771c0-3.549,0.619-5.93,1.859-7.139
			c1.242-1.209,3.484-1.813,6.729-1.813c3.167,0,5.363,0.595,6.583,1.785c1.223,1.191,1.833,3.468,1.833,6.83
			C108.502,132.481,107.881,134.844,106.642,136.053z M130.809,136.053c-1.24,1.206-3.464,1.813-6.67,1.813
			c-3.207,0-5.419-0.597-6.644-1.787c-1.221-1.188-1.831-3.446-1.831-6.771c0-3.549,0.619-5.93,1.86-7.139
			c1.24-1.209,3.482-1.813,6.728-1.813c3.17,0,5.364,0.595,6.585,1.785c1.222,1.191,1.833,3.468,1.833,6.83
			C132.67,132.481,132.048,134.844,130.809,136.053z M171.695,107.208c-0.096,0.683-0.221,1.229-0.373,1.646
			c-0.151,0.414-0.362,0.718-0.629,0.907c-0.267,0.188-0.573,0.301-0.917,0.338c-1.448,0.19-2.689,0.747-3.721,1.674
			c-1.03,0.926-1.883,2.075-2.548,3.455c-0.67,1.381-1.166,2.919-1.488,4.617c-0.327,1.7-0.327,1.7-0.327,1.7
			c-0.088,2.556-0.16,6.292-0.16,8.302s-0.107,7.168-0.239,11.463c0,0,0,0-0.477,2.703c-0.479,2.701-1.315,4.959-2.521,6.774
			c-1.201,1.812-2.797,3.188-4.779,4.134c-1.987,0.944-4.467,1.418-7.445,1.418c-0.955,0-1.832-0.05-2.635-0.143
			c-0.8-0.095-0.8-0.095-0.8-0.095c-1.008-0.181-2.095-0.424-2.415-0.539c0,0,0,0-0.248-0.188s-0.469-0.475-0.66-0.849
			c-0.189-0.378-0.341-0.879-0.455-1.503c-0.116-0.624-0.173-1.426-0.173-2.409c0-0.981,0.057-1.794,0.173-2.436
			c0.114-0.642,0.274-1.17,0.486-1.587c0.207-0.414,0.458-0.709,0.744-0.878c0.285-0.17,0.285-0.17,0.285-0.17
			c0.331-0.078,1.092-0.143,1.69-0.143c0.598,0,1.873-0.098,2.833-0.217c0,0,0,0,0.63-0.32c0.631-0.321,1.146-0.889,1.547-1.7
			c0.4-0.813,0.687-1.918,0.858-3.313c0.171-1.399,0.171-1.399,0.171-1.399c0.048-2.754,0.087-6.601,0.087-8.548
			s0.094-5.979,0.208-8.96c0,0,0,0,0.422-2.229c0.42-2.229,1.089-4.297,2.005-6.204c0.915-1.91,2.127-3.571,3.636-4.988
			c1.507-1.415,1.507-1.415,1.507-1.415c2.21-0.794,2.21-1.972,0-2.616c0,0,0,0-1.507-0.87c-1.509-0.869-2.721-1.945-3.636-3.229
			c-0.916-1.284-1.585-2.776-2.005-4.477c-0.422-1.698-0.422-1.698-0.422-1.698c-0.114-2.868-0.208-7.343-0.208-9.946
			s-0.039-6.98-0.087-9.727c0,0,0,0-0.171-1.379c-0.172-1.378-0.429-2.483-0.772-3.315c-0.346-0.831-0.802-1.407-1.373-1.728
			c-0.574-0.321-0.574-0.321-0.574-0.321c-0.851-0.12-2.011-0.23-2.577-0.246c-0.566-0.016-1.502-0.066-2.079-0.113
			c0,0,0,0-0.382-0.171c-0.38-0.169-0.688-0.443-0.917-0.821c-0.229-0.377-0.381-0.897-0.459-1.559
			c-0.075-0.661-0.113-1.502-0.113-2.521c0-0.944,0.048-1.748,0.144-2.408c0.094-0.662,0.247-1.181,0.457-1.559
			c0.209-0.377,0.449-0.66,0.717-0.85c0.266-0.188,0.266-0.188,0.266-0.188c0.358-0.083,1.424-0.321,2.368-0.528c0,0,0,0,0.8-0.077
			c0.803-0.075,1.68-0.114,2.635-0.114c3.015,0,5.517,0.463,7.501,1.389c1.985,0.926,3.568,2.295,4.753,4.108
			c1.184,1.813,2.013,4.071,2.491,6.772c0.477,2.701,0.477,2.701,0.477,2.701c0.132,4.326,0.239,10.059,0.239,12.739
			c0,2.681,0.067,6.714,0.15,8.963c0,0,0,0,0.307,1.152c0.306,1.151,0.774,2.107,1.403,2.861c0.631,0.756,1.46,1.358,2.491,1.814
			c1.03,0.451,1.03,0.451,1.03,0.451c1.479,0.344,2.987,0.696,3.351,0.784c0,0,0,0,0.284,0.208c0.288,0.208,0.517,0.521,0.688,0.937
			c0.171,0.415,0.315,0.952,0.43,1.615c0.114,0.658,0.17,1.48,0.17,2.463C171.837,105.663,171.789,106.532,171.695,107.208z"/>
	</g>
</g>
</svg>
